<svg fill="none" height="512" viewBox="0 0 32 32" width="512" xmlns="http://www.w3.org/2000/svg"><g clip-rule="evenodd" fill="rgb(0,0,0)" fill-rule="evenodd"><path d="m7.17071 7h-3.17071c-.55228 0-1 .44772-1 1s.44772 1 1 1h3.17071c.41183 1.1652 1.52307 2 2.82929 2 1.3062 0 2.4175-.8348 2.8293-2h15.1707c.5523 0 1-.44772 1-1s-.4477-1-1-1h-15.1707c-.4118-1.16519-1.5231-2-2.8293-2-1.30622 0-2.41746.83481-2.82929 2zm1.82929 1c0-.55228.44772-1 1-1 .5523 0 1 .44772 1 1s-.4477 1-1 1c-.55228 0-1-.44772-1-1z"/><path d="m25 13c1.3062 0 2.4175.8348 2.8293 2h.1707c.5523 0 1 .4477 1 1s-.4477 1-1 1h-.1707c-.4118 1.1652-1.5231 2-2.8293 2s-2.4175-.8348-2.8293-2h-18.1707c-.55228 0-1-.4477-1-1s.44771-1 1-1h18.1707c.4118-1.1652 1.5231-2 2.8293-2zm-1 3c0-.5523.4477-1 1-1s1 .4477 1 1-.4477 1-1 1-1-.4477-1-1z"/><path d="m17.8293 23c-.4118-1.1652-1.5231-2-2.8293-2s-2.4175.8348-2.8293 2h-8.1707c-.55228 0-1 .4477-1 1s.44772 1 1 1h8.1707c.4118 1.1652 1.5231 2 2.8293 2s2.4175-.8348 2.8293-2h10.1707c.5523 0 1-.4477 1-1s-.4477-1-1-1zm-2.8293 0c-.5523 0-1 .4477-1 1s.4477 1 1 1 1-.4477 1-1-.4477-1-1-1z"/></g></svg>