<?xml version="1.0" encoding="UTF-8"?>
<svg xmlns="http://www.w3.org/2000/svg" id="Icons" viewBox="0 0 60 60" width="512" height="512"><path d="M17,13h4a2,2,0,0,0,2-2V7a2,2,0,0,0-2-2H17a2,2,0,0,0-2,2v4A2,2,0,0,0,17,13Zm0-6h4l0,4H17Z"/><path d="M26,8h4a1,1,0,0,0,0-2H26a1,1,0,0,0,0,2Z"/><path d="M34,8h7a1,1,0,0,0,0-2H34a1,1,0,0,0,0,2Z"/><path d="M26,12H37a1,1,0,0,0,0-2H26a1,1,0,0,0,0,2Z"/><path d="M4.117,28,7.68,56.5A4.006,4.006,0,0,0,11.648,60H52a6.006,6.006,0,0,0,6-6V14.66a5.035,5.035,0,0,0-1.463-3.537l-9.66-9.66A5.035,5.035,0,0,0,43.34,0H16a6.006,6.006,0,0,0-6,6V20H6a4,4,0,0,0-4,4v2a2,2,0,0,0,2,2ZM30,58H11.648a2,2,0,0,1-1.984-1.752L6.133,28H35.867L32.336,56.248A2,2,0,0,1,30.352,58ZM54.586,12H48a2,2,0,0,1-2-2V3.414ZM12,6a4,4,0,0,1,4-4H43.34a2.988,2.988,0,0,1,.66.081V10a4,4,0,0,0,4,4h7.919a2.988,2.988,0,0,1,.081.66V54a4,4,0,0,1-4,4H33.8a3.962,3.962,0,0,0,.517-1.5L37.883,28H38a2,2,0,0,0,2-2V24a4,4,0,0,0-4-4H28V19a3,3,0,0,0-3-3H17a3,3,0,0,0-3,3v1H12ZM26,20H16V19a1,1,0,0,1,1-1h8a1,1,0,0,1,1,1ZM4,24a2,2,0,0,1,2-2H36a2,2,0,0,1,2,2l0,2H4Z"/><path d="M21,31a1,1,0,0,0-1,1V54a1,1,0,0,0,2,0V32A1,1,0,0,0,21,31Z"/><path d="M27,31a1,1,0,0,0-1,1V54a1,1,0,0,0,2,0V32A1,1,0,0,0,27,31Z"/><path d="M15,31a1,1,0,0,0-1,1V54a1,1,0,0,0,2,0V32A1,1,0,0,0,15,31Z"/></svg>
